<?xml version="1.0" standalone="no"?>
<!DOCTYPE svg PUBLIC "-//W3C//DTD SVG 20010904//EN"
 "http://www.w3.org/TR/2001/REC-SVG-20010904/DTD/svg10.dtd">
<svg version="1.0" xmlns="http://www.w3.org/2000/svg"
 width="446.000000pt" height="446.000000pt" viewBox="0 0 446.000000 446.000000"
 preserveAspectRatio="xMidYMid meet">
<metadata>
Created by potrace 1.14, written by Peter Selinger 2001-2017
</metadata>
<g transform="translate(0.000000,446.000000) scale(0.100000,-0.100000)"
fill="#000000" stroke="none">
<path d="M1238 3948 c-935 -469 -964 -484 -985 -523 l-23 -40 0 -1157 c0 -795
3 -1165 11 -1185 6 -15 20 -39 32 -52 12 -13 448 -236 969 -497 829 -414 954
-474 993 -474 39 0 166 60 1001 477 840 420 959 482 980 513 l24 35 0 1173 c0
1265 3 1199 -52 1249 -12 11 -447 233 -966 492 -768 384 -950 471 -982 471
-32 0 -216 -89 -1002 -482z m1964 -70 c921 -462 943 -474 955 -508 18 -52 18
-2264 0 -2300 -9 -20 -213 -126 -952 -497 -531 -266 -952 -472 -968 -472 -37
-1 -1902 932 -1917 958 -7 13 -10 386 -10 1163 0 1028 2 1146 16 1166 18 26
1876 961 1911 961 13 1 447 -212 965 -471z"/>
<path d="M1420 3755 l-865 -433 817 -408 817 -409 132 65 c72 36 133 68 135
72 3 4 -298 159 -668 344 l-673 336 585 293 585 293 677 -339 678 -339 135 67
c74 37 135 70 135 73 0 3 -366 188 -813 411 l-812 407 -865 -433z m1595 -22
c393 -197 715 -360 715 -363 0 -4 -20 -16 -45 -28 l-45 -22 -678 339 -677 339
-675 -338 -675 -337 55 -28 c30 -16 333 -167 673 -337 340 -170 616 -312 613
-317 -3 -4 -24 -16 -47 -26 l-41 -19 -726 363 -727 363 765 384 c421 210 773
383 782 383 10 1 340 -160 733 -356z"/>
<path d="M2215 3763 c-64 -9 -140 -41 -406 -174 -193 -96 -284 -147 -302 -169
-48 -57 -47 -137 3 -193 20 -23 127 -81 359 -197 l331 -165 120 60 c66 33 120
62 120 65 0 3 -148 79 -330 170 l-330 165 62 31 63 32 147 -74 148 -74 120 60
c66 33 120 62 120 65 0 3 -64 37 -142 76 l-143 72 40 18 c82 37 97 33 438
-137 l313 -156 122 61 c67 34 122 63 122 66 0 3 -168 88 -372 190 -422 209
-469 226 -603 208z m175 -95 c29 -8 607 -292 618 -303 2 -2 -10 -11 -28 -20
l-32 -17 -294 149 c-288 144 -296 148 -367 151 -71 3 -74 2 -192 -56 l-120
-59 143 -72 c78 -39 142 -73 142 -76 0 -2 -13 -11 -30 -20 -29 -15 -32 -14
-177 59 l-148 74 -107 -54 c-83 -42 -109 -60 -114 -78 -13 -54 -4 -61 292
-209 156 -78 284 -145 284 -148 0 -4 -14 -12 -31 -20 -31 -12 -41 -8 -346 144
-441 221 -440 201 -23 410 307 153 354 170 450 160 25 -2 61 -9 80 -15z"/>
<path d="M470 2182 l0 -1027 835 -418 c459 -229 840 -417 845 -417 7 0 10 349
10 1025 l0 1025 -840 420 c-462 231 -842 420 -845 420 -3 0 -5 -462 -5 -1028z
m845 521 l755 -378 0 -937 c0 -516 -2 -938 -5 -938 -3 0 -345 170 -760 377
l-755 378 0 937 c0 516 2 938 5 938 3 0 345 -170 760 -377z"/>
<path d="M570 2120 l0 -900 488 -244 c268 -134 512 -252 542 -262 81 -28 199
-25 268 5 228 102 255 449 62 790 l-37 64 31 61 c26 53 31 74 34 158 5 115
-13 207 -62 319 -65 150 -190 308 -311 394 -48 34 -991 515 -1010 515 -3 0 -5
-405 -5 -900z m508 561 c245 -122 443 -228 479 -256 171 -128 309 -371 320
-566 7 -109 -8 -175 -54 -235 l-35 -46 31 -43 c43 -60 117 -218 136 -290 53
-198 13 -374 -98 -439 -56 -33 -118 -41 -191 -26 -40 8 -209 87 -537 251
l-479 239 0 810 c0 445 2 810 5 810 3 0 193 -94 423 -209z"/>
<path d="M870 2342 l0 -207 305 -153 c269 -134 311 -152 354 -152 119 0 164
120 99 261 -47 102 -78 124 -428 299 -176 88 -322 160 -325 160 -3 0 -5 -93
-5 -208z m348 -51 c264 -132 298 -155 337 -230 21 -42 29 -105 16 -130 -8 -14
-21 -21 -41 -21 -18 0 -138 54 -305 137 l-275 138 0 117 c0 65 2 118 5 118 3
0 121 -58 263 -129z"/>
<path d="M870 1645 l0 -255 341 -170 c305 -153 345 -170 390 -170 62 0 100 21
127 69 27 50 34 98 22 162 -14 73 -52 148 -107 209 -41 46 -77 67 -404 230
-197 99 -361 180 -364 180 -3 0 -5 -115 -5 -255z m383 -21 c313 -157 343 -177
388 -270 30 -64 38 -164 15 -199 -31 -47 -61 -37 -395 130 l-311 155 0 165 c0
91 2 165 5 165 3 0 137 -66 298 -146z"/>
<path d="M3158 2789 l-838 -419 0 -1030 0 -1030 840 420 840 420 0 1030 c0
567 -1 1030 -2 1029 -2 0 -380 -189 -840 -420z m762 -649 l0 -940 -760 -380
-760 -380 0 940 0 940 758 379 c416 209 758 380 760 380 1 1 2 -422 2 -939z"/>
<path d="M3700 2920 l-175 -88 -188 -325 -189 -325 -190 136 -191 136 -173
-88 -174 -87 0 -889 c0 -594 3 -890 10 -890 6 0 82 36 170 80 l160 80 2 625 3
625 204 -145 c112 -80 205 -144 206 -142 1 1 87 148 191 326 l189 325 3 -607
2 -607 170 85 170 85 0 890 c0 706 -3 890 -12 889 -7 0 -92 -40 -188 -89z
m120 -840 l0 -800 -90 -45 -90 -45 -2 691 -3 691 -233 -400 c-128 -219 -238
-406 -245 -416 -11 -15 -34 -2 -232 139 -120 87 -224 159 -232 162 -11 4 -13
-114 -13 -671 l0 -676 -80 -40 c-44 -22 -84 -40 -90 -40 -7 0 -10 262 -10 799
l0 800 133 65 132 64 30 -22 c142 -107 378 -267 384 -260 4 5 97 164 207 353
l199 344 110 53 c61 30 113 54 118 54 4 0 7 -360 7 -800z"/>
</g>
</svg>
